<?xml version="1.0" encoding="UTF-8" standalone="no"?>
<svg
   xmlns:dc="http://purl.org/dc/elements/1.1/"
   xmlns:cc="http://creativecommons.org/ns#"
   xmlns:rdf="http://www.w3.org/1999/02/22-rdf-syntax-ns#"
   xmlns:svg="http://www.w3.org/2000/svg"
   xmlns="http://www.w3.org/2000/svg"
   xmlns:sodipodi="http://sodipodi.sourceforge.net/DTD/sodipodi-0.dtd"
   xmlns:inkscape="http://www.inkscape.org/namespaces/inkscape"
   inkscape:version="1.0 (4035a4fb49, 2020-05-01)"
   sodipodi:docname="file3.svg"
   xml:space="preserve"
   style="enable-background:new 0 0 367.6 367.6;"
   viewBox="0 0 367.6 367.6"
   y="0px"
   x="0px"
   id="Capa_1"
   version="1.1"><metadata
   id="metadata43"><rdf:RDF><cc:Work
       rdf:about=""><dc:format>image/svg+xml</dc:format><dc:type
         rdf:resource="http://purl.org/dc/dcmitype/StillImage" /></cc:Work></rdf:RDF></metadata><defs
   id="defs41" /><sodipodi:namedview
   inkscape:current-layer="Capa_1"
   inkscape:window-maximized="0"
   inkscape:window-y="0"
   inkscape:window-x="0"
   inkscape:cy="207.49073"
   inkscape:cx="73.361926"
   inkscape:zoom="0.55495186"
   showgrid="false"
   id="namedview39"
   inkscape:window-height="480"
   inkscape:window-width="837"
   inkscape:pageshadow="2"
   inkscape:pageopacity="0"
   guidetolerance="10"
   gridtolerance="10"
   objecttolerance="10"
   borderopacity="1"
   bordercolor="#666666"
   pagecolor="#ffffff" />
<g
   style="fill:#ffffff"
   id="g6">
	<g
   style="fill:#ffffff"
   id="g4">
		<path
   style="fill:#ffffff"
   id="path2"
   d="M328.6,81.6c-0.4,0-0.4-0.4-0.8-0.8c-0.4-0.4-0.4-0.8-0.8-1.2L258.2,2.4c-0.4-0.4-1.2-0.8-2-1.2c-0.4,0-0.4-0.4-0.8-0.4    c-0.8-0.4-2-0.8-3.2-0.8H83.8C59,0,38.6,20.4,38.6,45.2v277.2c0,24.8,20.4,45.2,45.2,45.2h200c24.8,0,45.2-20.4,45.2-45.2v-238    C329,83.6,328.6,82.4,328.6,81.6z M260.2,27.2l44.4,50h-44.4V27.2z M135.8,14.8h22.8v128.4L135.8,126V14.8z M98.2,14.8H121V126    l-22.8,17.2V14.8z M314.6,322c-0.8,16.8-14,30.4-30.8,30.4h-200c-16.8,0-30-13.6-30-30V44.8c0-16.4,13.2-29.6,29.6-30v143.6    c0,2.8,1.6,5.6,4.4,6.8c2.4,1.2,5.6,0.8,8-0.8l33.2-25.2l33.2,25.2c1.2,1.2,2.8,1.6,4.4,1.6c1.2,0,2.4-0.4,3.2-0.8    c2.4-1.2,4.4-4,4.4-6.8V14.8h71.6v69.6c0,4,3.2,7.6,7.6,7.6h61.2V322z" />
	</g>
</g>
<g
   id="g8">
</g>
<g
   id="g10">
</g>
<g
   id="g12">
</g>
<g
   id="g14">
</g>
<g
   id="g16">
</g>
<g
   id="g18">
</g>
<g
   id="g20">
</g>
<g
   id="g22">
</g>
<g
   id="g24">
</g>
<g
   id="g26">
</g>
<g
   id="g28">
</g>
<g
   id="g30">
</g>
<g
   id="g32">
</g>
<g
   id="g34">
</g>
<g
   id="g36">
</g>
</svg>
