<?xml version="1.0" encoding="UTF-8" standalone="no"?>
<svg
   xmlns:dc="http://purl.org/dc/elements/1.1/"
   xmlns:cc="http://creativecommons.org/ns#"
   xmlns:rdf="http://www.w3.org/1999/02/22-rdf-syntax-ns#"
   xmlns:svg="http://www.w3.org/2000/svg"
   xmlns="http://www.w3.org/2000/svg"
   xmlns:sodipodi="http://sodipodi.sourceforge.net/DTD/sodipodi-0.dtd"
   xmlns:inkscape="http://www.inkscape.org/namespaces/inkscape"
   inkscape:version="1.0 (4035a4fb49, 2020-05-01)"
   sodipodi:docname="file1.svg"
   xml:space="preserve"
   style="enable-background:new 0 0 512 512;"
   viewBox="0 0 512 512"
   y="0px"
   x="0px"
   id="Capa_1"
   version="1.1"><metadata
   id="metadata73"><rdf:RDF><cc:Work
       rdf:about=""><dc:format>image/svg+xml</dc:format><dc:type
         rdf:resource="http://purl.org/dc/dcmitype/StillImage" /></cc:Work></rdf:RDF></metadata><defs
   id="defs71" /><sodipodi:namedview
   inkscape:current-layer="Capa_1"
   inkscape:window-maximized="1"
   inkscape:window-y="0"
   inkscape:window-x="0"
   inkscape:cy="115.39517"
   inkscape:cx="-54.058531"
   inkscape:zoom="0.56347656"
   showgrid="false"
   id="namedview69"
   inkscape:window-height="712"
   inkscape:window-width="1366"
   inkscape:pageshadow="2"
   inkscape:pageopacity="0"
   guidetolerance="10"
   gridtolerance="10"
   objecttolerance="10"
   borderopacity="1"
   bordercolor="#666666"
   pagecolor="#ffffff" />
<g
   style="fill:#ffffff"
   id="g6">
	<g
   style="fill:#ffffff"
   id="g4">
		<path
   style="fill:#ffffff"
   id="path2"
   d="M446.449,67.295L383.547,4.394C380.734,1.581,376.919,0,372.94,0H144.328c-8.284,0-15,6.716-15,15v53.171H76.157    c-8.284,0-15,6.716-15,15V497c0,8.284,6.716,15,15,15h291.515c8.284,0,15-6.716,15-15v-53.171h53.171c8.284,0,15-6.716,15-15    V77.902C450.843,73.924,449.263,70.108,446.449,67.295z M378.024,41.297l31.521,31.521h-31.521V41.297z M352.672,482H91.157    V98.171h38.171v330.657c0,8.284,6.716,15,15,15h208.344V482z M420.842,413.828H159.328V30h188.696v57.818c0,8.284,6.716,15,15,15    h57.818V413.828z" />
	</g>
</g>
<g
   style="fill:#ffffff"
   id="g12">
	<g
   style="fill:#ffffff"
   id="g10">
		<path
   style="fill:#ffffff"
   id="path8"
   d="M380.819,143.207H199.352c-8.284,0-15,6.716-15,15s6.716,15,15,15H380.82c8.284,0,15-6.716,15-15    S389.104,143.207,380.819,143.207z" />
	</g>
</g>
<g
   style="fill:#ffffff"
   id="g18">
	<g
   style="fill:#ffffff"
   id="g16">
		<path
   style="fill:#ffffff"
   id="path14"
   d="M380.819,193.216H199.352c-8.284,0-15,6.716-15,15s6.716,15,15,15H380.82c8.284,0,15-6.716,15-15    S389.104,193.216,380.819,193.216z" />
	</g>
</g>
<g
   style="fill:#ffffff"
   id="g24">
	<g
   style="fill:#ffffff"
   id="g22">
		<path
   style="fill:#ffffff"
   id="path20"
   d="M380.819,243.227H199.352c-8.284,0-15,6.716-15,15s6.716,15,15,15H380.82c8.284,0,15-6.716,15-15    S389.104,243.227,380.819,243.227z" />
	</g>
</g>
<g
   style="fill:#ffffff"
   id="g30">
	<g
   style="fill:#ffffff"
   id="g28">
		<path
   style="fill:#ffffff"
   id="path26"
   d="M380.819,293.236H199.352c-8.284,0-15,6.716-15,15s6.716,15,15,15H380.82c8.284,0,15-6.716,15-15    S389.104,293.236,380.819,293.236z" />
	</g>
</g>
<g
   style="fill:#ffffff"
   id="g36">
	<g
   style="fill:#ffffff"
   id="g34">
		<path
   style="fill:#ffffff"
   id="path32"
   d="M380.819,343.246H199.352c-8.284,0-15,6.716-15,15s6.716,15,15,15H380.82c8.284,0,14.999-6.716,14.999-15    S389.103,343.246,380.819,343.246z" />
	</g>
</g>
<g
   id="g38">
</g>
<g
   id="g40">
</g>
<g
   id="g42">
</g>
<g
   id="g44">
</g>
<g
   id="g46">
</g>
<g
   id="g48">
</g>
<g
   id="g50">
</g>
<g
   id="g52">
</g>
<g
   id="g54">
</g>
<g
   id="g56">
</g>
<g
   id="g58">
</g>
<g
   id="g60">
</g>
<g
   id="g62">
</g>
<g
   id="g64">
</g>
<g
   id="g66">
</g>
</svg>
