<?xml version="1.0" encoding="UTF-8" standalone="no"?>
<svg
   xmlns:dc="http://purl.org/dc/elements/1.1/"
   xmlns:cc="http://creativecommons.org/ns#"
   xmlns:rdf="http://www.w3.org/1999/02/22-rdf-syntax-ns#"
   xmlns:svg="http://www.w3.org/2000/svg"
   xmlns="http://www.w3.org/2000/svg"
   xmlns:sodipodi="http://sodipodi.sourceforge.net/DTD/sodipodi-0.dtd"
   xmlns:inkscape="http://www.inkscape.org/namespaces/inkscape"
   inkscape:version="1.0 (4035a4fb49, 2020-05-01)"
   sodipodi:docname="folders2.svg"
   xml:space="preserve"
   style="enable-background:new 0 0 512 512;"
   viewBox="0 0 512 512"
   y="0px"
   x="0px"
   id="Capa_1"
   version="1.1"><metadata
   id="metadata61"><rdf:RDF><cc:Work
       rdf:about=""><dc:format>image/svg+xml</dc:format><dc:type
         rdf:resource="http://purl.org/dc/dcmitype/StillImage" /></cc:Work></rdf:RDF></metadata><defs
   id="defs59" /><sodipodi:namedview
   inkscape:current-layer="Capa_1"
   inkscape:window-maximized="0"
   inkscape:window-y="0"
   inkscape:window-x="0"
   inkscape:cy="164.25637"
   inkscape:cx="-348.2631"
   inkscape:zoom="0.28173828"
   showgrid="false"
   id="namedview57"
   inkscape:window-height="480"
   inkscape:window-width="837"
   inkscape:pageshadow="2"
   inkscape:pageopacity="0"
   guidetolerance="10"
   gridtolerance="10"
   objecttolerance="10"
   borderopacity="1"
   bordercolor="#666666"
   pagecolor="#ffffff" />
<g
   style="fill:#ffffff"
   id="g6">
	<g
   style="fill:#ffffff"
   id="g4">
		<path
   style="fill:#ffffff"
   id="path2"
   d="M106.492,372.401c-22.401,0-40.626,18.226-40.626,40.627s18.225,40.626,40.626,40.626s40.627-18.225,40.627-40.626    S128.893,372.401,106.492,372.401z M106.492,423.654c-5.859,0-10.626-4.767-10.626-10.626s4.767-10.627,10.626-10.627    c5.859,0,10.627,4.768,10.627,10.627S112.352,423.654,106.492,423.654z" />
	</g>
</g>
<g
   style="fill:#ffffff"
   id="g12">
	<g
   style="fill:#ffffff"
   id="g10">
		<path
   style="fill:#ffffff"
   id="path8"
   d="M256,372.401c-22.401,0-40.626,18.226-40.626,40.627s18.225,40.626,40.626,40.626s40.626-18.225,40.626-40.626    S278.401,372.401,256,372.401z M256,423.654c-5.859,0-10.626-4.767-10.626-10.626s4.767-10.627,10.626-10.627    s10.626,4.768,10.626,10.627S261.859,423.654,256,423.654z" />
	</g>
</g>
<g
   style="fill:#ffffff"
   id="g18">
	<g
   style="fill:#ffffff"
   id="g16">
		<path
   style="fill:#ffffff"
   id="path14"
   d="M480.263,0H31.737c-8.284,0-15,6.716-15,15v482c0,8.284,6.716,15,15,15h448.525c8.284,0,15-6.716,15-15V15    C495.263,6.716,488.547,0,480.263,0z M166.247,482H46.737V92.321h119.509V482z M166.247,62.321H46.737V30h119.509V62.321z     M315.755,482H196.247V92.321h119.508V482z M315.755,62.321H196.247V30h119.508V62.321z M465.263,482H345.755V92.321h119.509V482z     M465.263,62.321H345.755V30h119.509V62.321z" />
	</g>
</g>
<g
   style="fill:#ffffff"
   id="g24">
	<g
   style="fill:#ffffff"
   id="g22">
		<path
   style="fill:#ffffff"
   id="path20"
   d="M405.51,372.401c-22.401,0-40.627,18.226-40.627,40.627s18.226,40.626,40.627,40.626s40.626-18.225,40.626-40.626    S427.911,372.401,405.51,372.401z M405.51,423.654c-5.859,0-10.627-4.767-10.627-10.626s4.768-10.627,10.627-10.627    s10.626,4.768,10.626,10.627S411.369,423.654,405.51,423.654z" />
	</g>
</g>
<g
   id="g26">
</g>
<g
   id="g28">
</g>
<g
   id="g30">
</g>
<g
   id="g32">
</g>
<g
   id="g34">
</g>
<g
   id="g36">
</g>
<g
   id="g38">
</g>
<g
   id="g40">
</g>
<g
   id="g42">
</g>
<g
   id="g44">
</g>
<g
   id="g46">
</g>
<g
   id="g48">
</g>
<g
   id="g50">
</g>
<g
   id="g52">
</g>
<g
   id="g54">
</g>
</svg>
